PathFileType	4	(X/Y/Z)	/Users/itak/Documents/Research/Walk-IL/dataset/trc/00084_00006.trc
DataRate	CameraRate	NumFrames	NumMarkers	Units	OrigDataRate	OrigDataStartFrame	OrigNumFrames
100.000000	100.000000	4	54	mm	100.000000	181	484
Frame#	Time	RPSI			LPSI			L3			STRN			T10			C7			CLAV			RBAK			LBAK			LSHO			LUPA			LAEL			LAOL			LWTS			LWPS			LFRA			LIFD			LHPS			LHTS			RSHO			RUPA			RAEL			RAOL			RWTS			RWPS			RFRA			RIFD			RHTS			RHPS			RBHD			LFHD			RFHD			LBHD			LHIP			RHIP			RASI			LASI			LKNE			LTHI			LANK			LTIP			LTOE			LMT1			LMT5			LHEE			RKNE			RTHI			RANK			RTIP			RTOE			RMT1			RMT5			RHEE			*53			
		X1	Y1	Z1	X2	Y2	Z2	X3	Y3	Z3	X4	Y4	Z4	X5	Y5	Z5	X6	Y6	Z6	X7	Y7	Z7	X8	Y8	Z8	X9	Y9	Z9	X10	Y10	Z10	X11	Y11	Z11	X12	Y12	Z12	X13	Y13	Z13	X14	Y14	Z14	X15	Y15	Z15	X16	Y16	Z16	X17	Y17	Z17	X18	Y18	Z18	X19	Y19	Z19	X20	Y20	Z20	X21	Y21	Z21	X22	Y22	Z22	X23	Y23	Z23	X24	Y24	Z24	X25	Y25	Z25	X26	Y26	Z26	X27	Y27	Z27	X28	Y28	Z28	X29	Y29	Z29	X30	Y30	Z30	X31	Y31	Z31	X32	Y32	Z32	X33	Y33	Z33	X34	Y34	Z34	X35	Y35	Z35	X36	Y36	Z36	X37	Y37	Z37	X38	Y38	Z38	X39	Y39	Z39	X40	Y40	Z40	X41	Y41	Z41	X42	Y42	Z42	X43	Y43	Z43	X44	Y44	Z44	X45	Y45	Z45	X46	Y46	Z46	X47	Y47	Z47	X48	Y48	Z48	X49	Y49	Z49	X50	Y50	Z50	X51	Y51	Z51	X52	Y52	Z52	X53	Y53	Z53	X54	Y54	Z54	

182	1.81	-959.63134765625	1019.210388183594	505.5235290527344	-969.0157470703125	1013.385070800781	330.6834106445312	-959.9917602539062	1076.83251953125	412.4772338867188	-700.5396728515625	1266.632202148438	414.78369140625	-970.7600708007812	1210.81103515625	405.5791015625	-902.2830810546875	1475.561157226562	406.8096008300781	-726.764404296875	1382.338134765625	413.1692504882812	-970.532958984375	1338.998168945312	478.4784545898438	-923.6295776367188	1439.36767578125	304.5778198242188	-818.9771118164062	1442.490234375	235.6315002441406	-834.7025756835938	1316.462646484375	155.8777160644531	-813.5238037109375	1099.250122070312	139.8918914794922	-882.0765380859375	1086.047973632812	219.5818176269531	-711.685302734375	873.8909912109375	232.2169952392578	-761.8485107421875	852.8489990234375	167.8858795166016	-784.76708984375	991.115478515625	142.5450897216797	-691.7661743164062	692.3563842773438	270.8074951171875	-724.5404663085938	776.360107421875	183.2823181152344	-683.4746704101562	792.4254760742188	238.0107727050781	-844.4784545898438	1437.350830078125	584.15673828125	-861.89599609375	1369.762939453125	645.5254516601562	-927.59326171875	1116.43017578125	677.6739501953125	-904.570556640625	1087.313110351562	584.5140991210938	-827.8829345703125	843.1360473632812	662.7479248046875	-903.4569091796875	842.973876953125	707.6334228515625	-928.5288696289062	1036.08251953125	689.1536865234375	-861.0918579101562	657.6992797851562	649.927978515625	-824.4357299804688	739.217041015625	668.4979858398438	-882.9834594726562	749.9334716796875	716.9180908203125	-862.146240234375	1663.147216796875	396.5645446777344	-646.9989624023438	1663.604370117188	411.8395690917969	-710.5792236328125	1668.453247070312	302.7352905273438	-786.8685913085938	1648.823486328125	510.2599182128906	-862.5560302734375	951.2218017578125	241.4085845947266	-897.94873046875	943.0965576171875	583.1429443359375	-772.1478881835938	958.3456420898438	564.3802490234375	-752.0545043945312	959.558349609375	296.4130249023438	-697.908935546875	509.6234130859375	340.7447509765625	-756.7515869140625	635.0791015625	283.3182373046875	-781.0745239257812	48.12280654907227	358.1004333496094	-738.919189453125	259.4775695800781	336.4285583496094	-574.4307250976562	44.19247436523438	373.0181274414062	-626.1876831054688	44.12144470214844	425.0104675292969	-677.0145874023438	43.07796859741211	324.6676330566406	-834.0474243164062	46.91767883300781	432.7025146484375	-826.7849731445312	494.1785888671875	579.099365234375	-822.5379028320312	766.0302124023438	590.88232421875	-1219.888549804688	193.9819793701172	559.4613037109375	-912.3662719726562	399.3880310058594	584.4957275390625	-1085.379150390625	44.64015960693359	522.5513305664062	-1117.00537109375	86.07391357421875	483.1337585449219	-1149.165649414062	94.15547943115234	576.4655151367188	-1235.5185546875	235.4489135742188	503.0640869140625	nan	nan	nan	
183	1.82	-951.2028198242188	1018.757080078125	504.5654907226562	-961.1077880859375	1013.634399414062	329.9904174804688	-952.1611328125	1077.632568359375	411.2586364746094	-692.6577758789062	1267.354125976562	412.9649963378906	-962.8008422851562	1211.231689453125	403.676513671875	-894.6237182617188	1476.142333984375	404.822509765625	-718.966552734375	1383.043701171875	411.3034362792969	-962.7833251953125	1339.475708007812	476.5793762207031	-915.8363647460938	1439.770751953125	302.5618896484375	-811.1179809570312	1442.826904296875	233.7057495117188	-826.4338989257812	1316.784301757812	153.91796875	-804.6467895507812	1099.5732421875	137.6419677734375	-873.6720581054688	1086.187377929688	216.9089508056641	-702.8486938476562	874.4946899414062	230.6431884765625	-752.6920776367188	853.1886596679688	166.0869750976562	-775.7216796875	991.4646606445312	140.5028533935547	-682.320068359375	693.19873046875	269.7018432617188	-715.19921875	776.8292236328125	181.8189392089844	-674.254150390625	793.1973876953125	236.5469512939453	-836.8123779296875	1437.810668945312	582.2177124023438	-854.0882568359375	1370.098022460938	643.5418090820312	-918.6346435546875	1116.434814453125	676.2326049804688	-895.76123046875	1087.385131835938	582.9880981445312	-816.6829833984375	843.9647216796875	660.6280517578125	-892.261962890625	842.9886474609375	705.8466796875	-919.0239868164062	1035.9658203125	687.6969604492188	-848.148193359375	658.2449340820312	647.8416748046875	-812.2298583984375	740.0818481445312	666.3475341796875	-870.7950439453125	750.1721801757812	714.9835815429688	-854.51025390625	1663.715576171875	394.779296875	-639.2919921875	1664.405151367188	409.1898803710938	-703.3280639648438	1669.190795898438	300.3209838867188	-778.7609252929688	1649.450317382812	508.1528930664062	-855.3799438476562	951.6233520507812	240.0161437988281	-888.4304809570312	942.8504638671875	581.7633056640625	-762.8782348632812	959.3424682617188	562.595947265625	-744.156005859375	960.0596923828125	294.3969116210938	-693.978759765625	508.8596496582031	339.8359680175781	-751.979736328125	634.802001953125	282.4798583984375	-781.0728149414062	48.14312362670898	358.1114807128906	-737.208740234375	259.0707092285156	336.0224609375	-574.370361328125	44.07713317871094	373.0568542480469	-626.1412353515625	44.03768539428711	425.0363159179688	-676.94873046875	42.97683334350586	324.7081604003906	-834.01953125	46.96689987182617	432.7517395019531	-806.8295288085938	494.8884887695312	578.5364379882812	-809.0062866210938	767.0983276367188	589.92138671875	-1203.532958984375	200.6455841064453	560.3739013671875	-892.252197265625	400.7920837402344	584.0291748046875	-1069.28125	47.78268051147461	525.0067749023438	-1101.38134765625	90.92123413085938	484.9521484375	-1133.42236328125	100.8230667114258	578.4457397460938	-1219.058227539062	241.5171203613281	503.6195068359375	nan	nan	nan	
184	1.83	-942.7564697265625	1018.478149414062	503.7240905761719	-953.303466796875	1013.898010253906	329.4035339355469	-944.4599609375	1078.484497070312	410.1795349121094	-684.8665771484375	1268.102905273438	411.2132263183594	-955.0003051757812	1211.669677734375	401.8769226074219	-887.0531616210938	1476.736083984375	402.9462585449219	-711.2782592773438	1383.766235351562	409.5308532714844	-955.1249389648438	1339.954711914062	474.7742309570312	-908.1578979492188	1440.218505859375	300.6436767578125	-803.3632202148438	1443.18408203125	231.8802337646484	-818.242919921875	1317.119995117188	152.0769805908203	-795.7587280273438	1099.957641601562	135.4647827148438	-865.3037109375	1086.3232421875	214.2558746337891	-694.0303344726562	875.1119995117188	229.01611328125	-743.5313720703125	853.572265625	164.2038116455078	-766.6571044921875	991.8750610351562	138.4786682128906	-672.8443603515625	694.0556640625	268.4325256347656	-705.8495483398438	777.3471069335938	180.2323608398438	-665.041748046875	793.9920654296875	234.9980773925781	-829.2582397460938	1438.218383789062	580.3824462890625	-846.4146118164062	1370.364624023438	641.6387939453125	-909.6832275390625	1116.300903320312	674.735595703125	-886.8670043945312	1087.363525390625	581.4288330078125	-805.3819580078125	844.7296142578125	658.4702758789062	-880.9514770507812	842.9171142578125	704.0257568359375	-909.4747314453125	1035.733764648438	686.1756591796875	-834.8875122070312	658.7412109375	645.8516235351562	-799.8118896484375	740.9213256835938	664.23388671875	-858.4013061523438	750.3603515625	713.0725708007812	-846.8862915039062	1664.30712890625	393.0586547851562	-631.6008911132812	1665.15869140625	406.5677795410156	-696.084716796875	1669.862670898438	297.9519958496094	-770.6494750976562	1650.10791015625	506.1017150878906	-848.521484375	952.0215454101562	238.5775909423828	-878.8956298828125	942.838623046875	580.49365234375	-753.6119384765625	960.4116821289062	560.7392578125	-736.4489135742188	960.5795288085938	292.3447570800781	-690.304931640625	508.0930786132812	338.8913879394531	-747.4752807617188	634.5180053710938	281.6199035644531	-781.0834350585938	48.14236450195312	358.1051635742188	-735.588134765625	258.681640625	335.58935546875	-574.3469848632812	44.04059982299805	373.0747680664062	-626.1211547851562	43.989501953125	425.0188598632812	-676.916015625	42.887451171875	324.7192077636719	-834.019287109375	47.01617431640625	432.7751159667969	-786.9108276367188	496.017578125	577.7042846679688	-795.4212646484375	768.4307250976562	588.8992309570312	-1186.1748046875	206.1797180175781	561.1240234375	-872.1126098632812	402.4746398925781	583.3240356445312	-1051.482177734375	51.3320426940918	527.2525634765625	-1084.113647460938	95.39442443847656	486.69091796875	-1115.922607421875	106.9374618530273	580.3053588867188	-1201.903198242188	246.3543701171875	503.9542846679688	nan	nan	nan	
185	1.84	-934.2753295898438	1018.402893066406	502.9859924316406	-945.5703735351562	1014.193115234375	328.9004821777344	-936.8444213867188	1079.365112304688	409.216552734375	-677.1550903320312	1268.904052734375	409.5033569335938	-947.3228149414062	1212.121459960938	400.192138671875	-879.5758666992188	1477.341796875	401.1813354492188	-703.6994018554688	1384.527954101562	407.8307189941406	-947.5462646484375	1340.43505859375	473.05810546875	-900.6063842773438	1440.719360351562	298.8302917480469	-795.7365112304688	1443.603271484375	230.1482238769531	-810.156982421875	1317.512329101562	150.3460998535156	-786.8777465820312	1100.446533203125	133.3975830078125	-856.9586181640625	1086.508056640625	211.6842041015625	-685.240966796875	875.7681884765625	227.3392944335938	-734.3665771484375	854.0538330078125	162.2307281494141	-757.5855102539062	992.3951416015625	136.4956512451172	-663.4119262695312	694.9220581054688	266.9501037597656	-696.4996337890625	777.9594116210938	178.4953308105469	-655.8502807617188	794.8319091796875	233.355712890625	-821.8042602539062	1438.613647460938	578.6425170898438	-838.85009765625	1370.606079101562	639.812744140625	-900.7277221679688	1116.084594726562	673.1695556640625	-877.8658447265625	1087.305297851562	579.8251342773438	-793.9866333007812	845.4786376953125	656.2928466796875	-869.5361328125	842.8123168945312	702.159912109375	-899.8766479492188	1035.441528320312	684.5770874023438	-821.36962890625	659.2374877929688	643.9244995117188	-787.2332763671875	741.7749633789062	662.1539306640625	-845.8416137695312	750.5463256835938	711.1622314453125	-839.2764282226562	1664.952392578125	391.3984985351562	-623.9249877929688	1665.85595703125	403.9771118164062	-688.8438110351562	1670.469360351562	295.6341857910156	-762.541015625	1650.815307617188	504.1069946289062	-841.934814453125	952.419677734375	237.0889434814453	-869.3396606445312	943.1080322265625	579.3499145507812	-744.3511352539062	961.564697265625	558.802978515625	-728.893310546875	961.1219482421875	290.2501220703125	-686.8756713867188	507.3204650878906	337.9206848144531	-743.2144165039062	634.227783203125	280.7454833984375	-781.0985107421875	48.12749862670898	358.087158203125	-734.0497436523438	258.3117370605469	335.1400451660156	-574.3406982421875	44.04341125488281	373.0802307128906	-626.116455078125	43.96256256103516	424.9738464355469	-676.8999633789062	42.80590438842773	324.7094421386719	-834.0411987304688	47.0697135925293	432.7755737304688	-767.052734375	497.5336608886719	576.6066284179688	-781.9074096679688	769.9893188476562	587.789306640625	-1167.829711914062	210.476318359375	561.7708129882812	-851.97900390625	404.3880310058594	582.4078369140625	-1032.131713867188	54.98011779785156	529.1885375976562	-1065.325073242188	99.30558013916016	488.2769165039062	-1096.789794921875	112.2642288208008	581.9828491210938	-1184.04345703125	249.8911437988281	504.1779174804688	nan	nan	nan	
